#Comment line ignore any data following # character 
#Hierarchical Translation and Rotation (.htr) file 
[Header]	
#Header keywords are followed by a single value 
FileType HTR		#Single word string
DataType HTRS		#Translation followed by rotation and scale data
FileVersion 1		#integer
NumSegments 84		#integer
NumFrames 2		#integer
DataFrameRate 30		#integer, data frame rate in this file
EulerRotationOrder ZYX
CalibrationUnits mm
RotationUnits Degrees
GlobalAxisofGravity Y
BoneLengthAxis Y
ScaleFactor 1.00
[SegmentNames&Hierarchy]
#CHILD	PARENT
MASTER GLOBAL
root MASTER
chest root
L_mid_tent01 root
R_mid_tent01 root
spine01 root
Bip01_Neck chest
L_humerus chest
R_humerus chest
weapon_bone chest
Bip01_Head Bip01_Neck
eye_left_bone Bip01_Head
eye_right_bone Bip01_Head
L_forearm L_humerus
L_front_hand L_forearm
L_weapon_bone L_forearm
L_front_hand01_01 L_front_hand
L_front_hand02_01 L_front_hand
L_front_hand03_01 L_front_hand
L_front_hand01_02 L_front_hand01_01
L_front_hand02_02 L_front_hand02_01
L_front_hand03_02 L_front_hand03_01
R_forearm R_humerus
R_front_hand R_forearm
R_weapon_bone R_forearm
R_front_hand01_01 R_front_hand
R_front_hand02_01 R_front_hand
R_front_hand03_01 R_front_hand
R_front_hand01_02 R_front_hand01_01
R_front_hand02_02 R_front_hand02_01
R_front_hand03_02 R_front_hand03_01
null_rope01_connect L_mid_tent01
Rope1_Seg01 null_rope01_connect
Rope1_Seg02 Rope1_Seg01
Rope1_Seg03 Rope1_Seg02
Rope1_Seg04 Rope1_Seg03
Rope1_Seg05 Rope1_Seg04
Rope1_Seg06 Rope1_Seg05
Rope1_Seg07 Rope1_Seg06
Rope1_Seg09 Rope1_Seg07
L_mid_hand01 Rope1_Seg09
L_mid_hand02 Rope1_Seg09
L_mid_hand03 Rope1_Seg09
null_rope02_connect R_mid_tent01
Rope2_Seg01 null_rope02_connect
Rope2_Seg02 Rope2_Seg01
Rope2_Seg03 Rope2_Seg02
Rope2_Seg04 Rope2_Seg03
Rope2_Seg05 Rope2_Seg04
Rope2_Seg06 Rope2_Seg05
Rope2_Seg07 Rope2_Seg06
Rope2_Seg09 Rope2_Seg07
R_mid_hand01 Rope2_Seg09
R_mid_hand02 Rope2_Seg09
R_mid_hand03 Rope2_Seg09
spine02 spine01
spine03 spine02
pelvis spine03
null_rope03_connect pelvis
null_rope04_connect pelvis
Rope3_Seg01 null_rope03_connect
Rope3_Seg02 Rope3_Seg01
Rope3_Seg03 Rope3_Seg02
Rope3_Seg04 Rope3_Seg03
Rope3_Seg05 Rope3_Seg04
Rope3_Seg06 Rope3_Seg05
Rope3_Seg07 Rope3_Seg06
Rope3_Seg08 Rope3_Seg07
Rope3_Seg09 Rope3_Seg08
R_rear_hand01 Rope3_Seg09
R_rear_hand02 Rope3_Seg09
R_rear_hand03 Rope3_Seg09
Rope4_Seg01 null_rope04_connect
Rope4_Seg02 Rope4_Seg01
Rope4_Seg03 Rope4_Seg02
Rope4_Seg04 Rope4_Seg03
Rope4_Seg05 Rope4_Seg04
Rope4_Seg06 Rope4_Seg05
Rope4_Seg07 Rope4_Seg06
Rope4_Seg08 Rope4_Seg07
Rope4_Seg09 Rope4_Seg08
L_rear_hand01 Rope4_Seg09
L_rear_hand02 Rope4_Seg09
L_rear_hand03 Rope4_Seg09
[BasePosition]
#SegmentName Tx, Ty, Tz, Rx, Ry, Rz, BoneLength
MASTER 0.000000 0.000000 0.000000 -90.000000 0.000000 0.000000 10.000000 
root 0.000000 0.000000 0.000000 0.000000 0.000000 0.000000 10.000000 
chest 0.000000 0.000000 0.000000 0.000000 0.000000 0.000000 10.000000 
L_mid_tent01 0.000000 0.000000 0.000000 0.000000 0.000000 0.000000 10.000000 
R_mid_tent01 0.000000 0.000000 0.000000 0.000000 0.000000 0.000000 10.000000 
spine01 0.000000 0.000000 0.000000 0.000000 0.000000 0.000000 10.000000 
Bip01_Neck 0.000000 0.000000 0.000000 0.000000 0.000000 0.000000 10.000000 
L_humerus 0.000000 0.000000 0.000000 0.000000 0.000000 0.000000 10.000000 
R_humerus 0.000000 0.000000 0.000000 0.000000 0.000000 0.000000 10.000000 
weapon_bone 0.000000 0.000000 0.000000 0.000000 0.000000 0.000000 10.000000 
Bip01_Head 0.000000 0.000000 0.000000 0.000000 0.000000 0.000000 10.000000 
eye_left_bone 0.000000 0.000000 0.000000 0.000000 0.000000 0.000000 10.000000 
eye_right_bone 0.000000 0.000000 0.000000 0.000000 0.000000 0.000000 10.000000 
L_forearm 0.000000 0.000000 0.000000 0.000000 0.000000 0.000000 10.000000 
L_front_hand 0.000000 0.000000 0.000000 0.000000 0.000000 0.000000 10.000000 
L_weapon_bone 0.000000 0.000000 0.000000 0.000000 0.000000 0.000000 10.000000 
L_front_hand01_01 0.000000 0.000000 0.000000 0.000000 0.000000 0.000000 10.000000 
L_front_hand02_01 0.000000 0.000000 0.000000 0.000000 0.000000 0.000000 10.000000 
L_front_hand03_01 0.000000 0.000000 0.000000 0.000000 0.000000 0.000000 10.000000 
L_front_hand01_02 0.000000 0.000000 0.000000 0.000000 0.000000 0.000000 10.000000 
L_front_hand02_02 0.000000 0.000000 0.000000 0.000000 0.000000 0.000000 10.000000 
L_front_hand03_02 0.000000 0.000000 0.000000 0.000000 0.000000 0.000000 10.000000 
R_forearm 0.000000 0.000000 0.000000 0.000000 0.000000 0.000000 10.000000 
R_front_hand 0.000000 0.000000 0.000000 0.000000 0.000000 0.000000 10.000000 
R_weapon_bone 0.000000 0.000000 0.000000 0.000000 0.000000 0.000000 10.000000 
R_front_hand01_01 0.000000 0.000000 0.000000 0.000000 0.000000 0.000000 10.000000 
R_front_hand02_01 0.000000 0.000000 0.000000 0.000000 0.000000 0.000000 10.000000 
R_front_hand03_01 0.000000 0.000000 0.000000 0.000000 0.000000 0.000000 10.000000 
R_front_hand01_02 0.000000 0.000000 0.000000 0.000000 0.000000 0.000000 10.000000 
R_front_hand02_02 0.000000 0.000000 0.000000 0.000000 0.000000 0.000000 10.000000 
R_front_hand03_02 0.000000 0.000000 0.000000 0.000000 0.000000 0.000000 10.000000 
null_rope01_connect 0.000000 0.000000 0.000000 0.000000 0.000000 0.000000 10.000000 
Rope1_Seg01 0.000000 0.000000 0.000000 0.000000 0.000000 0.000000 10.000000 
Rope1_Seg02 0.000000 0.000000 0.000000 0.000000 0.000000 0.000000 10.000000 
Rope1_Seg03 0.000000 0.000000 0.000000 0.000000 0.000000 0.000000 10.000000 
Rope1_Seg04 0.000000 0.000000 0.000000 0.000000 0.000000 0.000000 10.000000 
Rope1_Seg05 0.000000 0.000000 0.000000 0.000000 0.000000 0.000000 10.000000 
Rope1_Seg06 0.000000 0.000000 0.000000 0.000000 0.000000 0.000000 10.000000 
Rope1_Seg07 0.000000 0.000000 0.000000 0.000000 0.000000 0.000000 10.000000 
Rope1_Seg09 0.000000 0.000000 0.000000 0.000000 0.000000 0.000000 10.000000 
L_mid_hand01 0.000000 0.000000 0.000000 0.000000 0.000000 0.000000 10.000000 
L_mid_hand02 0.000000 0.000000 0.000000 0.000000 0.000000 0.000000 10.000000 
L_mid_hand03 0.000000 0.000000 0.000000 0.000000 0.000000 0.000000 10.000000 
null_rope02_connect 0.000000 0.000000 0.000000 0.000000 0.000000 0.000000 10.000000 
Rope2_Seg01 0.000000 0.000000 0.000000 0.000000 0.000000 0.000000 10.000000 
Rope2_Seg02 0.000000 0.000000 0.000000 0.000000 0.000000 0.000000 10.000000 
Rope2_Seg03 0.000000 0.000000 0.000000 0.000000 0.000000 0.000000 10.000000 
Rope2_Seg04 0.000000 0.000000 0.000000 0.000000 0.000000 0.000000 10.000000 
Rope2_Seg05 0.000000 0.000000 0.000000 0.000000 0.000000 0.000000 10.000000 
Rope2_Seg06 0.000000 0.000000 0.000000 0.000000 0.000000 0.000000 10.000000 
Rope2_Seg07 0.000000 0.000000 0.000000 0.000000 0.000000 0.000000 10.000000 
Rope2_Seg09 0.000000 0.000000 0.000000 0.000000 0.000000 0.000000 10.000000 
R_mid_hand01 0.000000 0.000000 0.000000 0.000000 0.000000 0.000000 10.000000 
R_mid_hand02 0.000000 0.000000 0.000000 0.000000 0.000000 0.000000 10.000000 
R_mid_hand03 0.000000 0.000000 0.000000 0.000000 0.000000 0.000000 10.000000 
spine02 0.000000 0.000000 0.000000 0.000000 0.000000 0.000000 10.000000 
spine03 0.000000 0.000000 0.000000 0.000000 0.000000 0.000000 10.000000 
pelvis 0.000000 0.000000 0.000000 0.000000 0.000000 0.000000 10.000000 
null_rope03_connect 0.000000 0.000000 0.000000 0.000000 0.000000 0.000000 10.000000 
null_rope04_connect 0.000000 0.000000 0.000000 0.000000 0.000000 0.000000 10.000000 
Rope3_Seg01 0.000000 0.000000 0.000000 0.000000 0.000000 0.000000 10.000000 
Rope3_Seg02 0.000000 0.000000 0.000000 0.000000 0.000000 0.000000 10.000000 
Rope3_Seg03 0.000000 0.000000 0.000000 0.000000 0.000000 0.000000 10.000000 
Rope3_Seg04 0.000000 0.000000 0.000000 0.000000 0.000000 0.000000 10.000000 
Rope3_Seg05 0.000000 0.000000 0.000000 0.000000 0.000000 0.000000 10.000000 
Rope3_Seg06 0.000000 0.000000 0.000000 0.000000 0.000000 0.000000 10.000000 
Rope3_Seg07 0.000000 0.000000 0.000000 0.000000 0.000000 0.000000 10.000000 
Rope3_Seg08 0.000000 0.000000 0.000000 0.000000 0.000000 0.000000 10.000000 
Rope3_Seg09 0.000000 0.000000 0.000000 0.000000 0.000000 0.000000 10.000000 
R_rear_hand01 0.000000 0.000000 0.000000 0.000000 0.000000 0.000000 10.000000 
R_rear_hand02 0.000000 0.000000 0.000000 0.000000 0.000000 0.000000 10.000000 
R_rear_hand03 0.000000 0.000000 0.000000 0.000000 0.000000 0.000000 10.000000 
Rope4_Seg01 0.000000 0.000000 0.000000 0.000000 0.000000 0.000000 10.000000 
Rope4_Seg02 0.000000 0.000000 0.000000 0.000000 0.000000 0.000000 10.000000 
Rope4_Seg03 0.000000 0.000000 0.000000 0.000000 0.000000 0.000000 10.000000 
Rope4_Seg04 0.000000 0.000000 0.000000 0.000000 0.000000 0.000000 10.000000 
Rope4_Seg05 0.000000 0.000000 0.000000 0.000000 0.000000 0.000000 10.000000 
Rope4_Seg06 0.000000 0.000000 0.000000 0.000000 0.000000 0.000000 10.000000 
Rope4_Seg07 0.000000 0.000000 0.000000 0.000000 0.000000 0.000000 10.000000 
Rope4_Seg08 0.000000 0.000000 0.000000 0.000000 0.000000 0.000000 10.000000 
Rope4_Seg09 0.000000 0.000000 0.000000 0.000000 0.000000 0.000000 10.000000 
L_rear_hand01 0.000000 0.000000 0.000000 0.000000 0.000000 0.000000 10.000000 
L_rear_hand02 0.000000 0.000000 0.000000 0.000000 0.000000 0.000000 10.000000 
L_rear_hand03 0.000000 0.000000 0.000000 0.000000 0.000000 0.000000 10.000000 
#Beginning of Data. Separated by tabs
#Fr	Tx	Ty	Tz	Rx	Ry	Rz	SF
[MASTER]
22 0.000000 0.000000 0.000000 0.001660 0.001660 0.001660 0.000000
23 0.000000 0.000000 0.000000 0.001660 0.001660 0.001660 0.000000
[root]
22 -67.071213 -62.946796 1157.994873 -91.548332 -28.278038 -90.366478 1161.642334
23 -77.123131 -62.999023 1137.026489 -91.523453 -28.201077 -90.420647 1141.379150
[chest]
22 -84.512650 -34.090519 0.000000 -4.888762 0.545214 179.475098 91.129311
23 -84.512650 -34.090519 0.000000 -4.519594 -0.052431 179.089676 91.129311
[L_mid_tent01]
22 27.299520 22.177418 -249.918015 -16.409164 43.700848 25.150129 252.380890
23 27.299522 22.177414 -249.918015 -18.709160 42.156612 17.585123 252.380890
[R_mid_tent01]
22 23.228794 24.509907 226.238495 -168.749481 -43.867546 28.449846 228.744751
23 23.228794 24.509907 226.238495 -167.474625 -45.334156 25.063797 228.744751
[spine01]
22 -0.361383 -0.195265 0.000000 0.132305 0.401332 12.705545 0.410763
23 -0.361383 -0.195265 0.000000 0.084517 0.394941 12.569264 0.410763
[Bip01_Neck]
22 165.484543 71.581718 0.000119 175.896118 1.177290 24.871183 180.302734
23 165.484543 71.581718 0.000119 175.896118 1.177290 24.871183 180.302734
[L_humerus]
22 -13.983130 -135.272980 -120.471481 -101.781876 -0.111878 -172.649704 181.680161
23 -13.983130 -135.272980 -120.471481 -91.729248 0.656799 -172.414597 181.680161
[R_humerus]
22 -13.983309 -135.273102 125.287651 110.704247 4.871029 -174.706070 184.909012
23 -13.983309 -135.273102 125.287651 101.962326 3.259545 -175.776505 184.909012
[weapon_bone]
22 235.964890 -300.705902 0.000000 0.000000 -89.951546 -128.212341 382.234833
23 235.964890 -300.705902 0.000000 0.000000 -89.951546 -128.212341 382.234833
[Bip01_Head]
22 244.786758 153.234558 7.871513 0.601332 3.764342 -73.852196 288.900238
23 243.003235 156.573792 8.504371 0.811016 3.597074 -73.954872 289.202759
[eye_left_bone]
22 -24.626970 125.451866 -64.772606 0.000000 -90.000000 -99.840431 143.318359
23 -24.626970 125.451866 -64.772606 0.000000 -90.000000 -99.840431 143.318359
[eye_right_bone]
22 -24.626970 125.451866 64.327362 0.000000 -89.960434 80.159386 143.117676
23 -24.626970 125.451866 64.327362 0.000000 -89.960434 80.159386 143.117676
[L_forearm]
22 322.776093 0.000000 -0.000119 0.000141 0.002343 -83.123909 322.776093
23 322.776093 0.000000 -0.000119 0.000132 0.002344 -83.574165 322.776093
[L_front_hand]
22 241.149185 -0.042021 -3.300071 -178.390289 -1.594786 -36.621780 241.171753
23 241.149185 -0.042021 -3.300071 -178.291855 -1.488063 -40.272884 241.171753
[L_weapon_bone]
22 156.183838 0.000000 0.000000 0.001922 0.001348 19.916382 156.183838
23 156.183838 0.000000 0.000000 0.001892 0.001389 17.433134 156.183838
[L_front_hand01_01]
22 86.095154 20.947098 -0.655860 0.405585 -0.442306 -4.620490 88.609184
23 86.095154 20.947098 -0.655860 0.405585 -0.442306 -4.620490 88.609184
[L_front_hand02_01]
22 86.935165 -11.437475 24.513514 116.959450 3.630817 1.495453 91.046425
23 86.935165 -11.437475 24.513514 116.959450 3.630817 1.495453 91.046425
[L_front_hand03_01]
22 86.637497 -14.123976 -20.424902 -118.420097 -4.656303 -0.152527 90.126129
23 86.637497 -14.123976 -20.424902 -118.420097 -4.656303 -0.152527 90.126129
[L_front_hand01_02]
22 71.020905 -0.000179 0.000030 0.001534 0.001777 -8.378848 71.020905
23 71.020905 -0.000179 0.000030 0.001534 0.001777 -8.378851 71.020905
[L_front_hand02_02]
22 71.020927 -0.000119 0.000060 0.001534 0.001777 -8.378848 71.020927
23 71.020927 -0.000119 0.000060 0.001534 0.001777 -8.378851 71.020927
[L_front_hand03_02]
22 71.020905 -0.000060 0.000060 0.001534 0.001777 -8.378848 71.020905
23 71.020905 -0.000060 0.000060 0.001534 0.001777 -8.378851 71.020905
[R_forearm]
22 322.776428 -0.000060 0.000030 0.203868 -0.059404 -75.185272 322.776428
23 322.776428 -0.000060 0.000030 0.204058 -0.058747 -75.553986 322.776428
[R_front_hand]
22 238.847015 -0.006795 2.210259 -1.712421 0.235109 -70.811066 238.857239
23 238.847015 -0.006795 2.210259 -1.728027 0.056271 -76.808029 238.857239
[R_weapon_bone]
22 155.664093 0.002503 -0.000030 0.003099 0.001986 -118.925354 155.664078
23 155.664093 0.002503 -0.000030 0.003154 0.001897 -115.664734 155.664078
[R_front_hand01_01]
22 87.624611 14.231146 22.918642 -116.960213 3.496675 -1.324139 91.683487
23 87.624611 14.231146 22.918642 -116.960213 3.496675 -1.324139 91.683487
[R_front_hand02_01]
22 89.356956 14.367283 -19.491137 118.419647 -4.257089 0.609827 92.579636
23 89.356956 14.367283 -19.491137 118.419647 -4.257089 0.609827 92.579636
[R_front_hand03_01]
22 87.286232 -22.307278 -0.143439 -0.387970 -0.231462 4.232001 90.091743
23 87.286232 -22.307278 -0.143439 -0.387970 -0.231462 4.232001 90.091743
[R_front_hand01_02]
22 71.020905 0.000060 0.000119 0.001777 0.001534 8.377220 71.020905
23 71.020905 0.000060 0.000119 0.001777 0.001534 8.377220 71.020905
[R_front_hand02_02]
22 71.020844 -0.000030 -0.000119 0.001777 0.001534 8.377220 71.020836
23 71.020844 -0.000030 -0.000119 0.001777 0.001534 8.377220 71.020836
[R_front_hand03_02]
22 71.020905 0.000000 0.000030 0.001777 0.001534 8.377220 71.020905
23 71.020905 0.000000 0.000030 0.001777 0.001534 8.377220 71.020905
[null_rope01_connect]
22 328.732483 0.000000 -0.000238 -110.803780 -42.407482 -162.305099 328.732483
23 328.732483 0.000000 -0.000238 -107.082870 -43.117760 -159.159256 328.732483
[Rope1_Seg01]
22 0.000000 0.000000 0.000000 41.889412 -24.430664 -114.781273 0.000000
23 0.000000 0.000000 0.000000 56.811230 -35.407108 -128.236130 0.000000
[Rope1_Seg02]
22 139.999863 -0.000179 0.000000 -12.023945 15.287999 -2.134655 139.999863
23 139.999863 -0.000179 0.000000 -6.507096 13.211056 -2.084132 139.999863
[Rope1_Seg03]
22 139.999924 0.000060 -0.000060 -11.004041 9.328094 0.826028 139.999924
23 139.999924 0.000060 -0.000060 -14.303814 17.647808 -0.838131 139.999924
[Rope1_Seg04]
22 139.999924 -0.000060 -0.000119 -8.890191 5.870599 1.690811 139.999924
23 139.999924 -0.000060 -0.000119 -22.961521 17.881868 3.274587 139.999924
[Rope1_Seg05]
22 139.999832 0.000119 -0.000060 -51.109970 33.052776 15.881343 139.999832
23 139.999832 0.000119 -0.000060 -20.896631 11.692257 8.853800 139.999832
[Rope1_Seg06]
22 139.999954 0.000119 -0.000060 -18.860485 8.209075 45.502254 139.999954
23 139.999954 0.000119 -0.000060 -12.671856 5.089837 10.115784 139.999954
[Rope1_Seg07]
22 139.999985 0.000060 0.000000 -1.474500 -2.376229 12.349648 139.999985
23 139.999985 0.000060 0.000000 -6.571135 1.876919 7.489750 139.999985
[Rope1_Seg09]
22 121.602913 0.000119 -0.000089 -89.793175 -1.359789 0.847147 121.602913
23 121.602913 0.000119 -0.000089 -89.793175 -1.359789 0.847147 121.602913
[L_mid_hand01]
22 103.859421 1.038730 8.195221 105.476997 -21.698404 -6.376459 104.187431
23 103.859421 1.038730 8.195221 105.579529 -22.648384 -6.659524 104.187431
[L_mid_hand02]
22 105.572853 -4.139662 -10.864139 -139.121078 19.457180 -20.452520 106.211075
23 105.572853 -4.139662 -10.864139 -139.393402 20.098042 -21.242611 106.211075
[L_mid_hand03]
22 104.641464 17.579376 -3.913581 -17.511393 6.856474 24.618538 106.179977
23 104.641464 17.579376 -3.913581 -17.397038 7.151558 25.563232 106.179977
[null_rope02_connect]
22 328.732849 0.000179 -0.000119 -105.151505 46.422432 -10.016541 328.732849
23 328.732849 0.000179 -0.000119 -103.214073 44.763096 -10.662061 328.732849
[Rope2_Seg01]
22 0.000047 0.000101 0.000042 44.857845 -23.217239 -57.711426 0.000118
23 0.000051 0.000102 0.000038 40.718735 -32.250053 -56.379871 0.000120
[Rope2_Seg02]
22 139.999741 -0.000060 -0.000119 18.522003 17.009140 -19.123688 139.999756
23 139.999741 -0.000060 -0.000119 5.743787 7.475266 -10.397217 139.999756
[Rope2_Seg03]
22 140.000107 0.000030 0.000000 10.136888 6.547641 -6.049890 140.000107
23 140.000107 0.000030 0.000000 2.764128 6.126375 -5.173112 140.000107
[Rope2_Seg04]
22 139.999802 0.000000 -0.000060 50.051079 -3.356167 -14.373679 139.999802
23 139.999802 0.000000 -0.000060 32.303658 6.109099 -19.665644 139.999802
[Rope2_Seg05]
22 139.999985 -0.000060 0.000119 22.974468 -20.365515 -7.100315 139.999985
23 139.999985 -0.000060 0.000119 41.155426 -9.733184 -21.097752 139.999985
[Rope2_Seg06]
22 139.999893 -0.000030 -0.000119 4.207342 -10.966300 0.243946 139.999893
23 139.999893 -0.000030 -0.000119 7.653353 -6.720083 -3.437743 139.999893
[Rope2_Seg07]
22 139.999893 0.000060 -0.000060 1.546907 -6.036856 0.469873 139.999893
23 139.999893 0.000060 -0.000060 3.108789 -3.682986 -1.355652 139.999893
[Rope2_Seg09]
22 121.338966 0.000089 -0.000060 33.793236 -1.359788 -0.847141 121.338966
23 121.338966 0.000089 -0.000060 33.793236 -1.359788 -0.847141 121.338966
[R_mid_hand01]
22 104.680779 11.144459 -10.335981 -44.355274 18.974569 21.124479 105.778534
23 104.680779 11.144459 -10.335981 -44.145947 19.560663 21.759447 105.778534
[R_mid_hand02]
22 104.070427 2.443552 8.231699 74.288689 -23.681126 6.983585 104.424065
23 104.070427 2.443552 8.231699 74.186180 -24.483591 7.232481 104.424065
[R_mid_hand03]
22 106.028137 -11.221827 -5.996406 -166.402725 8.152505 -27.673393 106.788818
23 106.028137 -11.221827 -5.996406 -166.520828 8.347037 -28.494413 106.788818
[spine02]
22 129.756927 0.001550 0.000119 -0.129241 -4.116558 -6.004392 129.756927
23 129.756927 0.001550 0.000119 -0.120882 -4.098792 -6.125762 129.756927
[spine03]
22 78.862877 0.043859 -2.467344 1.744412 0.259262 12.117966 78.901474
23 78.883781 0.040232 -2.263279 1.784626 -0.024738 13.149118 78.916252
[pelvis]
22 169.435242 0.051022 0.000000 0.011599 1.676879 -3.236820 169.435257
23 169.435242 0.051022 0.000000 0.011351 1.793213 -3.332536 169.435257
[null_rope03_connect]
22 -1.257226 -2.466202 137.391083 130.478134 -89.037743 -27.861176 137.418976
23 -1.257226 -2.466202 137.391083 129.016556 -88.971298 -27.159513 137.418976
[null_rope04_connect]
22 -1.259640 -2.480268 -137.844437 130.478134 -89.037743 -27.861176 137.872513
23 -1.259640 -2.480268 -137.844437 129.016556 -88.971298 -27.159513 137.872513
[Rope3_Seg01]
22 0.000000 0.000000 0.000000 -142.076172 -28.054768 -55.267307 0.000000
23 0.000000 0.000000 0.000000 -143.298584 -31.348131 -56.205486 0.000000
[Rope3_Seg02]
22 139.999924 -0.000119 0.000060 2.197056 -4.304451 0.849708 139.999924
23 139.999924 -0.000119 0.000060 2.155499 -4.101038 1.359939 139.999924
[Rope3_Seg03]
22 139.999924 -0.000119 0.000119 3.043648 -5.512430 1.311367 139.999924
23 139.999924 -0.000119 0.000119 2.893030 -5.235213 1.964365 139.999924
[Rope3_Seg04]
22 139.999924 0.000119 0.000000 4.184916 -7.045703 2.019941 139.999924
23 139.999924 0.000119 0.000000 3.916292 -6.820023 2.936363 139.999924
[Rope3_Seg05]
22 139.999924 -0.000238 0.000060 5.876225 -8.819642 2.806804 139.999924
23 139.999924 -0.000238 0.000060 6.021708 -9.799195 4.626358 139.999924
[Rope3_Seg06]
22 139.999893 -0.000119 -0.000060 8.828647 -11.485075 6.590322 139.999893
23 139.999893 -0.000119 -0.000060 6.564878 -9.403014 6.927152 139.999893
[Rope3_Seg07]
22 139.999771 0.000060 -0.000119 7.804594 -9.189594 9.007748 139.999771
23 139.999771 0.000060 -0.000119 4.330523 -5.046210 6.547134 139.999771
[Rope3_Seg08]
22 139.999985 -0.000060 0.000000 4.632691 -5.039863 6.331258 139.999985
23 139.999985 -0.000060 0.000000 3.072423 -3.501393 5.032451 139.999985
[Rope3_Seg09]
22 90.185997 -0.000179 -0.000060 89.793228 -1.359877 -0.847183 90.185997
23 90.185997 -0.000179 -0.000060 89.793228 -1.359877 -0.847183 90.185997
[R_rear_hand01]
22 103.366196 -6.073594 -10.757982 -159.598709 14.167137 -22.751797 104.101845
23 103.366196 -6.073594 -10.757982 -159.959000 14.681529 -24.191765 104.101845
[R_rear_hand02]
22 100.509819 12.039542 -7.992327 -36.171688 14.961141 22.465153 101.543350
23 100.509819 12.039542 -7.992327 -35.841637 15.831041 23.713278 101.543350
[R_rear_hand03]
22 101.539970 5.215704 5.435467 83.795967 -23.482485 6.345248 101.819031
23 101.539970 5.215704 5.435467 83.722893 -24.961670 6.520504 101.819031
[Rope4_Seg01]
22 0.000010 0.000038 -0.000114 48.962215 -32.151806 -102.178352 0.000121
23 0.000010 0.000038 -0.000114 50.121620 -36.186337 -103.149673 0.000121
[Rope4_Seg02]
22 139.999985 0.000060 0.000119 -0.501411 -1.726798 -4.720782 139.999985
23 139.999985 0.000060 0.000119 -0.719102 -0.418166 -4.586663 139.999985
[Rope4_Seg03]
22 139.999924 0.000000 -0.000238 -1.044074 -2.281498 -6.446540 139.999924
23 139.999924 0.000000 -0.000238 -1.278884 -0.494465 -6.277440 139.999924
[Rope4_Seg04]
22 139.999985 0.000000 0.000119 -1.535881 -5.188412 -8.229261 139.999985
23 139.999985 0.000000 0.000119 -2.060936 -2.076566 -8.522819 139.999985
[Rope4_Seg05]
22 139.999802 -0.000060 -0.000119 -3.703648 -6.618946 -11.317565 139.999802
23 139.999802 -0.000060 -0.000119 -3.967590 -4.283684 -12.159727 139.999802
[Rope4_Seg06]
22 139.999924 0.000000 0.000060 -16.950722 11.486147 -19.647264 139.999924
23 139.999924 0.000000 0.000060 -12.857546 13.470078 -17.424168 139.999924
[Rope4_Seg07]
22 139.999802 0.000000 0.000000 -11.550117 18.941223 -14.016895 139.999802
23 139.999802 0.000000 0.000000 -6.933106 19.117996 -10.432009 139.999802
[Rope4_Seg08]
22 139.999924 0.000000 0.000119 -4.613432 9.227831 -6.128590 139.999924
23 139.999924 0.000000 0.000119 -2.921308 8.324158 -5.033866 139.999924
[Rope4_Seg09]
22 90.185791 0.000060 0.000060 -135.617828 2.228885 0.850567 90.185791
23 90.185791 0.000060 0.000060 -135.617828 2.228885 0.850567 90.185791
[L_rear_hand01]
22 101.696655 -8.392275 -7.654577 -36.675041 -13.498210 159.575958 102.329041
23 101.696655 -8.392275 -7.654577 -36.362701 -14.425783 158.284424 102.329041
[L_rear_hand02]
22 102.726799 -1.568258 5.773216 83.906456 21.038904 173.941177 102.900848
23 102.726799 -1.568258 5.773216 83.841537 22.586626 173.765472 102.900848
[L_rear_hand03]
22 104.552910 9.721220 -10.420293 -159.035797 -13.298703 -159.616333 105.519653
23 104.552910 9.721220 -10.420293 -159.389603 -13.851097 -158.113632 105.519653
